<?xml version="1.0" encoding="UTF-8"?>
<svg width="449px" height="213px" viewBox="0 0 449 213" version="1.1" xmlns="http://www.w3.org/2000/svg" xmlns:xlink="http://www.w3.org/1999/xlink">
    <!-- Generator: Sketch 40.3 (33839) - http://www.bohemiancoding.com/sketch -->
    <title>Untitled</title>
    <desc>Created with Sketch.</desc>
    <defs></defs>
    <g id="Page-1" stroke="none" stroke-width="1" fill="none" fill-rule="evenodd">
        <g id="jira_rgb_blue_atlassian" fill="#dcdcdc">
            <path d="M223.858,80.859 L204.525,80.859 C202.786,80.859 201.375,82.269 201.375,84.008 L201.375,201.634 C201.375,203.375 202.786,204.785 204.525,204.785 L223.858,204.785 C225.598,204.785 227.009,203.375 227.009,201.634 L227.009,84.008 C227.009,82.269 225.598,80.859 223.858,80.859" id="Fill-1"></path>
            <g id="Group-5" transform="translate(247.000000, 80.000000)">
                <path d="M25.979,23.761 L50.475,23.761 C63.143,23.761 65.686,28.746 65.686,36.79 L65.686,48.803 C65.686,58.816 61.849,62.194 50.475,62.194 L25.979,62.194 L25.979,23.761 L25.979,23.761 Z M100.773,119.585 L73.856,80.757 C85.446,75.949 91.32,65.873 91.32,50.805 L91.32,34.97 C91.32,11.379 79.003,0.859 51.384,0.859 L3.496,0.859 C1.757,0.859 0.346,2.269 0.346,4.008 L0.346,121.634 C0.346,123.375 1.757,124.785 3.496,124.785 L22.829,124.785 C24.568,124.785 25.979,123.375 25.979,121.634 L25.979,84.744 L45.764,84.744 L72.672,123.433 C73.261,124.279 74.227,124.785 75.258,124.785 L98.361,124.785 L98.381,124.785 C100.121,124.785 101.531,123.375 101.531,121.634 C101.531,120.851 101.246,120.135 100.773,119.585 L100.773,119.585 Z" id="Fill-2"></path>
                <path d="M164.211,3.062 C163.798,1.75 162.582,0.859 161.207,0.859 L131.812,0.859 C130.437,0.859 129.222,1.75 128.809,3.062 L91.723,120.687 C91.421,121.644 91.593,122.688 92.186,123.498 C92.779,124.308 93.723,124.785 94.727,124.785 L114.963,124.785 C116.359,124.785 117.589,123.867 117.984,122.527 L143.523,36.018 C143.523,36.018 144.191,33.858 146.504,33.858 C148.855,33.858 149.428,36.103 149.428,36.106 L161.277,77.129 L144.998,77.129 C143.587,77.129 142.348,78.067 141.966,79.425 L137.398,95.665 C137.131,96.615 137.324,97.634 137.92,98.42 C138.516,99.206 139.444,99.668 140.431,99.668 L167.902,99.668 L175.039,122.571 C175.449,123.888 176.668,124.785 178.047,124.785 L198.293,124.785 C199.297,124.785 200.24,124.308 200.833,123.498 C201.427,122.688 201.599,121.644 201.297,120.687 L164.211,3.062" id="Fill-4"></path>
            </g>
            <path d="M178.582,80.859 L159.014,80.859 C157.357,80.859 156.006,82.203 156.006,83.859 L156.006,175.901 C156.006,187.468 147.192,191.27 141.227,191.574 C140.423,191.613 139.487,192.12 138.973,192.871 C138.457,193.625 138.313,194.571 138.581,195.443 L143.339,210.92 C143.727,212.186 145.092,213 147.313,213 C166.036,213 181.582,198.3 181.582,178.596 L181.582,83.86 C181.582,83.064 181.267,82.3 180.703,81.737 C180.141,81.174 179.378,80.859 178.582,80.859" id="Fill-6"></path>
            <path d="M27.051,48.77 C21.039,48.77 16.171,53.632 16.171,59.659 C16.171,65.671 21.039,70.55 27.051,70.55 C33.068,70.55 37.931,65.671 37.931,59.659 C37.931,53.632 33.068,48.77 27.051,48.77" id="Fill-7"></path>
            <path d="M98.531,48.77 C92.516,48.77 87.654,53.632 87.654,59.659 C87.654,65.671 92.516,70.55 98.531,70.55 C104.529,70.55 109.409,65.671 109.409,59.659 C109.409,53.632 104.529,48.778 98.531,48.77" id="Fill-8"></path>
            <path d="M62.791,38.834 C56.779,38.834 51.911,43.695 51.911,49.724 C51.911,55.736 56.779,60.616 62.791,60.616 C68.807,60.616 73.669,55.736 73.669,49.724 C73.669,43.695 68.807,38.834 62.791,38.834" id="Fill-9"></path>
            <path d="M182.915,2.62 C182.761,2.13 182.308,1.797 181.794,1.797 L170.815,1.797 C170.302,1.797 169.847,2.13 169.692,2.62 L155.841,46.551 C155.728,46.908 155.792,47.297 156.015,47.601 C156.235,47.902 156.589,48.081 156.964,48.081 L164.52,48.081 C165.043,48.081 165.502,47.738 165.649,47.237 L175.188,14.929 C175.188,14.929 175.438,14.123 176.302,14.123 C177.181,14.123 177.394,14.962 177.394,14.963 L181.819,30.281 L175.875,30.281 C175.348,30.281 174.885,30.631 174.741,31.139 L173.036,37.205 C172.936,37.56 173.009,37.941 173.231,38.234 C173.453,38.527 173.8,38.7 174.169,38.7 L184.294,38.7 L186.96,47.255 C187.113,47.747 187.568,48.081 188.083,48.081 L195.645,48.081 C196.02,48.081 196.373,47.902 196.594,47.601 C196.815,47.297 196.88,46.908 196.768,46.551 L182.915,2.62" id="Fill-10"></path>
            <path d="M215.847,41.311 C215.797,40.984 215.612,40.692 215.337,40.508 C215.061,40.324 214.722,40.265 214.398,40.345 C213.172,40.65 211.997,40.818 211.089,40.818 C209.368,40.818 208.603,40.073 208.603,38.4 L208.603,21.568 L215.353,21.568 C216.002,21.568 216.528,21.042 216.528,20.392 L216.528,15.142 C216.528,14.493 216.002,13.966 215.353,13.966 L208.603,13.966 L208.603,5.861 C208.603,5.521 208.455,5.197 208.198,4.975 C207.942,4.751 207.6,4.65 207.264,4.696 L200.314,5.664 C199.733,5.745 199.3,6.243 199.3,6.83 L199.3,13.966 L195.515,13.966 C194.864,13.966 194.337,14.493 194.337,15.142 L194.337,20.392 C194.337,21.042 194.864,21.568 195.515,21.568 L199.3,21.568 L199.3,39.488 C199.3,45.641 202.535,48.76 208.914,48.76 C210.729,48.76 213.811,48.342 215.829,47.642 C216.364,47.456 216.69,46.914 216.606,46.356 L215.847,41.311" id="Fill-11"></path>
            <path d="M228.712,0.942 L221.763,0.942 C221.113,0.942 220.586,1.467 220.586,2.117 L220.586,46.905 C220.586,47.554 221.113,48.081 221.763,48.081 L228.712,48.082 C229.362,48.082 229.889,47.554 229.889,46.905 L229.889,2.119 C229.889,1.468 229.362,0.942 228.712,0.942" id="Fill-12"></path>
            <path d="M251.244,35.573 L251.244,39.665 C250.093,40.279 248.005,41.159 245.494,41.159 C243.327,41.159 242.667,40.498 242.667,38.332 C242.667,36.228 243.076,35.573 245.63,35.573 L251.244,35.573 L251.244,35.573 Z M246.582,13.287 C243.063,13.287 238.782,13.841 235.675,14.7 C235.097,14.86 234.73,15.43 234.827,16.021 L235.64,21.067 C235.69,21.381 235.866,21.66 236.128,21.843 C236.388,22.026 236.712,22.094 237.026,22.033 C239.916,21.471 242.899,21.161 245.427,21.161 C250.442,21.161 251.244,22.22 251.244,25.619 L251.244,28.582 L243.794,28.582 C236.676,28.582 233.638,31.518 233.638,38.4 C233.638,44.984 236.968,48.761 242.774,48.761 C246.134,48.761 249.497,47.829 252.325,46.124 L252.622,47.214 C252.763,47.726 253.227,48.082 253.757,48.082 L259.37,48.082 C260.019,48.082 260.546,47.554 260.546,46.905 L260.546,25.755 C260.546,16.666 256.762,13.287 246.582,13.287 L246.582,13.287 Z" id="Fill-13"></path>
            <path d="M277.96,26.966 C273.648,25.855 273.648,25.811 273.648,23.444 C273.648,21.856 273.806,21.092 277.359,21.092 C279.793,21.092 283.384,21.518 285.69,21.913 C286.007,21.967 286.332,21.89 286.59,21.697 C286.848,21.505 287.017,21.216 287.057,20.897 L287.711,15.6 C287.785,15.003 287.396,14.446 286.811,14.31 C284.144,13.688 280.434,13.287 277.359,13.287 C266.672,13.287 264.482,17.32 264.482,23.375 C264.482,30.034 265.72,32.271 273.91,34.267 C279.302,35.565 279.302,36.529 279.302,38.128 C279.302,40.228 279.122,40.954 275.591,40.954 C272.749,40.954 269.46,40.512 266.566,39.74 C266.249,39.655 265.911,39.708 265.634,39.884 C265.356,40.059 265.165,40.342 265.106,40.666 L264.186,45.691 C264.081,46.272 264.421,46.841 264.981,47.023 C268.138,48.046 272.669,48.761 275.999,48.761 C286.349,48.761 288.468,44.429 288.468,37.924 C288.468,30.74 287.192,29.41 277.96,26.966" id="Fill-14"></path>
            <path d="M304.813,26.966 C300.501,25.856 300.501,25.811 300.501,23.444 C300.501,21.856 300.659,21.092 304.211,21.092 C306.644,21.092 310.235,21.518 312.542,21.914 C312.858,21.967 313.185,21.89 313.441,21.697 C313.7,21.507 313.868,21.216 313.908,20.898 L314.563,15.6 C314.638,15.003 314.249,14.446 313.663,14.31 C310.995,13.688 307.285,13.287 304.211,13.287 C293.524,13.287 291.335,17.32 291.335,23.375 C291.335,30.034 292.571,32.271 300.762,34.268 C306.153,35.565 306.153,36.529 306.153,38.128 C306.153,40.228 305.974,40.954 302.444,40.954 C299.601,40.954 296.311,40.512 293.419,39.74 C293.101,39.655 292.763,39.708 292.485,39.884 C292.208,40.059 292.017,40.342 291.958,40.666 L291.039,45.691 C290.933,46.272 291.272,46.841 291.833,47.023 C294.989,48.046 299.52,48.761 302.852,48.761 C313.2,48.761 315.321,44.429 315.321,37.924 C315.321,30.74 314.045,29.41 304.813,26.966" id="Fill-15"></path>
            <path d="M327.302,0.859 L320.353,0.859 C319.704,0.859 319.177,1.386 319.177,2.036 L319.177,8.207 C319.177,8.857 319.704,9.384 320.353,9.384 L327.302,9.384 C327.952,9.384 328.479,8.857 328.479,8.207 L328.479,2.036 C328.479,1.386 327.952,0.859 327.302,0.859" id="Fill-16"></path>
            <path d="M327.302,13.966 L320.353,13.966 C319.704,13.966 319.177,14.493 319.177,15.143 L319.177,46.905 C319.177,47.555 319.704,48.082 320.353,48.082 L327.302,48.082 C327.952,48.082 328.479,47.555 328.479,46.905 L328.479,15.143 C328.479,14.493 327.952,13.966 327.302,13.966" id="Fill-17"></path>
            <path d="M350.009,35.573 L350.009,39.665 C348.856,40.279 346.77,41.159 344.259,41.159 C342.093,41.159 341.433,40.498 341.433,38.332 C341.433,36.228 341.841,35.573 344.395,35.573 L350.009,35.573 L350.009,35.573 Z M345.347,13.287 C341.828,13.287 337.546,13.841 334.439,14.7 C333.86,14.86 333.495,15.43 333.593,16.021 L334.405,21.067 C334.456,21.381 334.632,21.661 334.894,21.843 C335.153,22.026 335.478,22.094 335.792,22.033 C338.681,21.471 341.665,21.161 344.19,21.161 C349.207,21.161 350.009,22.22 350.009,25.619 L350.009,28.582 L342.56,28.582 C335.44,28.582 332.402,31.519 332.402,38.4 C332.402,44.984 335.733,48.761 341.54,48.761 C344.898,48.761 348.263,47.829 351.09,46.124 L351.388,47.215 C351.526,47.726 351.991,48.082 352.522,48.082 L358.135,48.082 C358.784,48.082 359.311,47.555 359.311,46.905 L359.311,25.755 C359.311,16.666 355.526,13.287 345.347,13.287 L345.347,13.287 Z" id="Fill-18"></path>
            <g id="Group-22" transform="translate(0.000000, 13.000000)">
                <path d="M385.016,0.287 C381.331,0.287 376.315,1.556 372.075,3.546 L371.568,1.813 C371.421,1.31 370.961,0.966 370.438,0.966 L365.294,0.966 C364.644,0.966 364.116,1.493 364.116,2.143 L364.116,33.905 C364.116,34.555 364.644,35.082 365.294,35.082 L372.243,35.082 C372.892,35.082 373.419,34.555 373.419,33.905 L373.419,11.907 C375.922,10.634 379.441,9.317 381.548,9.317 C383.112,9.317 383.694,9.899 383.694,11.464 L383.694,33.905 C383.694,34.555 384.222,35.082 384.871,35.082 L391.821,35.082 C392.47,35.082 392.998,34.555 392.998,33.905 L392.998,10.58 C392.998,3.75 390.311,0.287 385.016,0.287" id="Fill-19"></path>
                <path d="M124.252,66.113 C123.646,65.653 122.919,65.414 122.181,65.414 C121.771,65.414 121.357,65.489 120.965,65.64 C113.598,68.457 106.117,70.596 99.289,72.187 C97.896,72.512 96.771,73.546 96.305,74.788 C91.33,88.415 78.627,101.391 65.299,114.983 C64.764,115.49 64.015,116.16 62.795,116.16 C61.578,116.16 60.836,115.511 60.291,114.983 C46.965,101.391 34.262,88.461 29.285,74.832 C28.818,73.591 27.693,72.557 26.303,72.232 C19.471,70.64 11.971,68.435 4.613,65.618 C4.219,65.468 3.805,65.393 3.394,65.393 C2.656,65.393 1.942,65.625 1.338,66.086 C0.394,66.806 -0.096,67.974 0.016,69.096 C1.144,80.428 5.622,91.506 13.703,103.115 C21.299,114.03 31.207,124.132 40.786,133.901 C58.436,151.904 75.109,168.907 76.572,188.624 C76.704,190.402 78.186,191.781 79.973,191.781 L100.709,191.781 C101.643,191.781 102.535,191.397 103.18,190.72 C103.822,190.044 104.162,189.136 104.115,188.202 C103.463,175.02 98.502,161.819 88.949,147.849 C86.947,144.92 84.803,142.07 82.561,139.281 C81.65,138.145 82.031,136.734 82.728,136.022 C83.417,135.317 84.109,134.614 84.805,133.901 C94.385,124.131 104.291,114.03 111.889,103.115 C119.969,91.505 124.445,80.492 125.574,69.162 C125.687,68.024 125.17,66.815 124.252,66.113" id="Fill-21"></path>
            </g>
            <path d="M40.543,162.238 C40.053,161.725 39.332,161.201 38.122,161.201 C36.574,161.201 35.656,162.271 35.309,162.801 C26.587,176.074 22.082,188.601 21.459,201.19 C21.414,202.118 21.756,203.04 22.398,203.718 C23.043,204.392 23.947,204.781 24.879,204.781 L45.58,204.781 C47.361,204.781 48.861,203.387 48.992,201.611 C49.443,195.544 51.332,189.462 54.771,183.071 C55.963,180.86 55.037,178.783 54.351,177.895 C50.939,173.458 46.76,168.725 40.543,162.238" id="Fill-23"></path>
            <path d="M62.814,89.273 C69.313,89.273 73.082,88.882 74.406,88.882 C76.01,88.882 77.543,90.196 77.543,92.036 C77.543,92.573 77.416,92.957 77.29,93.296 C76.428,95.6 72.5,103.89 65.187,111.001 C64.367,111.799 63.437,111.948 62.797,111.948 L62.789,111.948 C62.15,111.948 61.221,111.799 60.401,111.001 C53.088,103.89 49.159,95.6 48.299,93.296 C48.172,92.957 48.045,92.573 48.045,92.036 C48.045,90.196 49.58,88.882 51.184,88.882 C52.508,88.882 56.275,89.273 62.771,89.273 L62.814,89.273" id="Fill-24"></path>
        </g>
    </g>
</svg>